<svg width="1920" height="454" viewBox="0 0 1920 454" fill="none" xmlns="http://www.w3.org/2000/svg">
<path fill-rule="evenodd" clip-rule="evenodd" d="M1920 0H0V452H7.13454L52.8009 443.688C55.6119 443.192 58.5596 442.669 61.6372 442.124C118.118 432.117 218.34 414.361 320.001 405.248C331.788 404.191 343.556 403.251 355.31 402.311C450.443 394.708 544.588 387.184 640.001 318.757C687.758 284.507 735.198 234.998 782.603 185.526C841.607 123.948 900.558 62.4267 960.001 30.4536C1049.13 -17.4855 1137.15 1.00311 1225.9 19.6457C1243.9 23.4263 1261.93 27.2131 1280 30.4536C1322.8 38.1278 1365.35 42.7378 1407.84 47.3423C1471.78 54.27 1535.6 61.185 1600 78.5042C1701.66 105.845 1801.88 159.113 1858.36 189.133C1861.44 190.769 1864.39 192.336 1867.2 193.825L1920 222.656V0Z" fill="white"/>
<path fill-rule="evenodd" clip-rule="evenodd" d="M832.731 134C811.941 134.495 791.324 134.939 771.195 134.699C726.3 134.164 683.851 142.32 641.667 152.853C626.657 156.601 611.686 160.649 596.652 164.713C569.412 172.077 541.962 179.499 513.678 185.302C485.41 191.102 455.876 193.457 426.14 194.955C416.421 195.445 406.677 195.844 396.95 196.242C376.931 197.061 356.981 197.877 337.447 199.481C279.385 204.247 224.817 215.981 182.516 255.549C131.141 303.605 95.6865 369.369 79 439.483C79.3564 439.421 79.7141 439.358 80.0729 439.295C96.758 369.52 132.078 304.097 183.199 256.279C225.244 216.951 279.523 205.239 337.528 200.477C357.042 198.875 376.957 198.061 396.963 197.242C406.696 196.844 416.45 196.445 426.191 195.954C455.939 194.455 485.534 192.098 513.879 186.282C542.189 180.473 569.697 173.036 596.959 165.666L596.96 165.666C611.987 161.604 626.939 157.562 641.909 153.823C684.063 143.297 726.415 135.165 771.183 135.699C790.988 135.935 811.27 135.509 831.71 135.025C832.05 134.683 832.391 134.341 832.731 134Z" fill="#D0382F"/>
</svg>
